<?xml version="1.0" standalone="no"?>
<!DOCTYPE svg PUBLIC "-//W3C//DTD SVG 20010904//EN"
 "http://www.w3.org/TR/2001/REC-SVG-20010904/DTD/svg10.dtd">
<svg version="1.0" xmlns="http://www.w3.org/2000/svg"
 width="1200.000000pt" height="1200.000000pt" viewBox="0 0 1200.000000 1200.000000"
 preserveAspectRatio="xMidYMid meet">
<metadata>
Created by potrace 1.14, written by Peter Selinger 2001-2017
</metadata>
<g transform="translate(0.000000,1200.000000) scale(0.100000,-0.100000)"
fill="#000000" stroke="none">
<path d="M0 6000 l0 -6000 6000 0 6000 0 0 6000 0 6000 -6000 0 -6000 0 0
-6000z m3310 1520 l0 -860 2690 0 2690 0 0 860 0 860 655 0 655 0 0 -2380 0
-2380 -655 0 -655 0 0 860 0 860 -2690 0 -2690 0 0 -860 0 -860 -655 0 -655 0
0 2380 0 2380 655 0 655 0 0 -860z m1273 845 c235 -50 396 -282 357 -515 -42
-252 -277 -423 -522 -382 -194 33 -348 184 -381 375 -33 195 69 395 247 482
110 55 184 65 299 40z m3022 1 c225 -49 381 -258 362 -485 -14 -174 -129 -326
-295 -393 l-57 -23 -815 0 -815 0 -57 23 c-306 124 -393 502 -172 742 60 65
152 118 234 136 82 18 1532 18 1615 0z m-3009 -3840 c345 -92 465 -517 217
-765 -106 -105 -253 -155 -392 -131 -316 53 -486 393 -335 671 34 61 115 142
180 179 98 56 225 74 330 46z m3005 4 c120 -22 253 -120 313 -229 149 -275
-22 -621 -334 -670 -86 -14 -1460 -14 -1554 -1 -250 37 -430 278 -388 522 18
102 62 185 138 258 65 63 141 105 216 119 63 13 1543 13 1609 1z"/>
</g>
</svg>
