<svg width="51" height="51" viewBox="0 0 51 51" fill="none" xmlns="http://www.w3.org/2000/svg">
<circle cx="25.357" cy="25.357" r="25.3567" fill="#D3E3FF"/>
<path d="M23.7245 37.9584C24.5852 38.5126 25.6096 38.7555 26.6275 38.6468C27.6454 38.538 28.5954 38.0842 29.3196 37.3607L29.9505 36.7298C30.2303 36.4469 30.3873 36.0651 30.3873 35.6672C30.3873 35.2693 30.2303 34.8875 29.9505 34.6046L27.2941 31.9648C27.014 31.686 26.635 31.5295 26.2398 31.5295C25.8446 31.5295 25.4656 31.686 25.1855 31.9648C24.9027 32.2447 24.5208 32.4016 24.123 32.4016C23.7251 32.4016 23.3432 32.2447 23.0604 31.9648L18.8267 27.7312C18.5469 27.4483 18.3899 27.0665 18.3899 26.6686C18.3899 26.2707 18.5469 25.8889 18.8267 25.606C19.1055 25.326 19.2621 24.9469 19.2621 24.5518C19.2621 24.1566 19.1055 23.7775 18.8267 23.4975L16.2699 20.8411C15.9871 20.5613 15.6052 20.4043 15.2074 20.4043C14.8095 20.4043 14.4277 20.5613 14.1448 20.8411L13.5139 21.472C12.7774 22.186 12.3081 23.1309 12.1842 24.1492C12.0603 25.1674 12.2894 26.1973 12.8332 27.0671C15.7283 31.3651 19.4265 35.0633 23.7245 37.9584Z" stroke="#1062FE" stroke-width="1.55649" stroke-linecap="round" stroke-linejoin="round"/>
<path d="M32.1999 18.693H27.6376C27.5905 18.693 27.544 18.6837 27.5006 18.6657C27.4571 18.6476 27.4177 18.6212 27.3846 18.5879C27.3514 18.5545 27.3251 18.515 27.3073 18.4715C27.2894 18.428 27.2804 18.3814 27.2806 18.3344C27.2811 18.2479 27.3123 18.1643 27.3686 18.0986L30.6227 14.3797C30.6545 14.3431 30.6938 14.3138 30.7379 14.2938C30.782 14.2737 30.8299 14.2634 30.8784 14.2634C31.0643 14.2634 31.2154 14.4162 31.2154 14.6021V20.169M24.5378 20.1673H20.603V19.3289C20.6034 19.042 20.6873 18.7615 20.8445 18.5215C21.0016 18.2816 21.2252 18.0925 21.4879 17.9774L23.6795 17.0195C23.9827 16.8874 24.2312 16.6549 24.383 16.361C24.5348 16.0671 24.5806 15.7299 24.5127 15.4062C24.4449 15.0825 24.2675 14.7921 24.0104 14.5839C23.7534 14.3757 23.4325 14.2626 23.1017 14.2634H22.079C21.7738 14.2638 21.4762 14.3586 21.2271 14.5349C20.978 14.7112 20.7895 14.9603 20.6877 15.248" stroke="#1062FE" stroke-width="1.55649" stroke-linecap="round" stroke-linejoin="round"/>
<path d="M37.6245 17.1324C37.2214 17.7327 31.4659 23.0895 28.6385 25.6929" stroke="#1062FE" stroke-width="1.48574" stroke-linecap="round"/>
<path d="M33.2844 23.189C33.3741 23.1441 33.4751 23.118 33.5872 23.1105C33.6994 23.0955 33.819 23.0881 33.9462 23.0881H38.0067C38.1114 23.0881 38.2236 23.0843 38.3432 23.0768C38.4629 23.0694 38.5713 23.0918 38.6685 23.1441C38.8031 23.2189 38.8816 23.3386 38.9041 23.5031C38.9265 23.6601 38.9115 23.8396 38.8592 24.0415C38.8143 24.2359 38.7433 24.4453 38.6461 24.6696C38.5489 24.8865 38.4479 25.0959 38.3432 25.2978C38.2385 25.4922 38.1376 25.6717 38.0404 25.8362C37.9431 25.9932 37.8758 26.1129 37.8384 26.1951C37.7188 26.4195 37.6066 26.6251 37.5019 26.8121C37.4047 26.999 37.3075 27.186 37.2103 27.3729C37.1206 27.5599 37.0234 27.7468 36.9187 27.9338C36.8214 28.1207 36.713 28.3264 36.5934 28.5507C36.4438 28.8573 36.2718 29.1788 36.0774 29.5154C35.8904 29.8444 35.711 30.1547 35.539 30.4464C35.4866 30.5361 35.4268 30.6258 35.3595 30.7156C35.2922 30.8053 35.2137 30.8801 35.124 30.9399C35.0417 30.9997 34.9445 31.0371 34.8323 31.0521C34.7276 31.067 34.6117 31.0446 34.4846 30.9848C34.2902 30.8801 34.163 30.7268 34.1032 30.5249C34.0509 30.323 34.0696 30.136 34.1593 29.964C34.3014 29.7098 34.4397 29.4555 34.5743 29.2013C34.7089 28.9396 34.8435 28.6816 34.9781 28.4273C35.18 28.0459 35.367 27.6795 35.539 27.3281C35.7184 26.9766 35.9091 26.6102 36.111 26.2288C36.1709 26.1166 36.2531 25.982 36.3578 25.825C36.4625 25.6605 36.5597 25.4922 36.6495 25.3202C36.7467 25.1482 36.8214 24.98 36.8738 24.8155C36.9336 24.6435 36.9523 24.4939 36.9299 24.3668C36.6681 24.3444 36.4289 24.3369 36.212 24.3444C36.0026 24.3444 35.7708 24.3444 35.5165 24.3444H34.4285C34.2939 24.3444 34.1481 24.3481 33.991 24.3556C33.8415 24.363 33.6994 24.3556 33.5648 24.3331C33.4302 24.3032 33.3143 24.2471 33.2171 24.1649C33.1273 24.0826 33.0713 23.948 33.0488 23.7611C33.0339 23.604 33.0488 23.4807 33.0937 23.3909C33.1386 23.3012 33.2021 23.2339 33.2844 23.189Z" fill="#1062FE"/>
</svg>
