<svg width="52" height="52" viewBox="0 0 52 52" fill="none" xmlns="http://www.w3.org/2000/svg">
<circle cx="25.5445" cy="25.5448" r="25.5449" fill="#D3E3FF"/>
<path d="M37.0024 13.0083C36.8279 12.8672 36.6241 12.767 36.4058 12.715C36.1875 12.663 35.9603 12.6606 35.741 12.708C34.1364 13.0443 32.4799 13.0486 30.8736 12.7206C29.2672 12.3926 27.745 11.7393 26.4007 10.8009C26.1493 10.6265 25.8507 10.5331 25.5447 10.5331C25.2388 10.5331 24.9402 10.6265 24.6888 10.8009C23.3445 11.7393 21.8223 12.3926 20.2159 12.7206C18.6096 13.0486 16.9531 13.0443 15.3485 12.708C15.1292 12.6606 14.902 12.663 14.6837 12.715C14.4654 12.767 14.2616 12.8672 14.0871 13.0083C13.9129 13.1497 13.7725 13.3282 13.6764 13.5309C13.5803 13.7336 13.5307 13.9553 13.5315 14.1796V25.367C13.5302 27.52 14.0432 29.6421 15.028 31.5567C16.0127 33.4713 17.4406 35.123 19.1927 36.3741L24.6738 40.2784C24.9281 40.4595 25.2325 40.5568 25.5447 40.5568C25.8569 40.5568 26.1614 40.4595 26.4157 40.2784L31.8967 36.3741C33.6489 35.123 35.0768 33.4713 36.0615 31.5567C37.0463 29.6421 37.5593 27.52 37.558 25.367V14.1796C37.5588 13.9553 37.5092 13.7336 37.4131 13.5309C37.3169 13.3282 37.1766 13.1497 37.0024 13.0083ZM34.5547 25.367C34.5558 27.0409 34.1572 28.691 33.3919 30.1798C32.6266 31.6686 31.5168 32.9531 30.1548 33.9264L25.5447 37.215L20.9347 33.9264C19.5727 32.9531 18.4629 31.6686 17.6976 30.1798C16.9323 28.691 16.5337 27.0409 16.5348 25.367V15.9065C19.6829 16.176 22.8358 15.4456 25.5447 13.8192C28.2537 15.4456 31.4066 16.176 34.5547 15.9065V25.367Z" fill="#1062FE"/>
<path d="M29.877 18.6915C30.1389 18.6368 30.4117 18.6878 30.6357 18.8341C31.1028 19.1395 31.2341 19.7655 30.9287 20.2325L25.417 28.6613C25.337 28.7836 25.2314 28.8874 25.1074 28.965C24.9835 29.0425 24.8442 29.092 24.6992 29.1105C24.5543 29.1289 24.4069 29.1164 24.2676 29.0724C24.1631 29.0394 24.0647 28.9892 23.9766 28.9249L23.8916 28.8556L20.3252 25.6134C20.1271 25.4332 20.0088 25.1817 19.9961 24.9142C19.9834 24.6466 20.0776 24.3849 20.2578 24.1866C20.438 23.9885 20.6895 23.8703 20.957 23.8575C21.2246 23.8448 21.4863 23.939 21.6846 24.1193L24.374 26.5636L29.2383 19.1271C29.3849 18.9029 29.6148 18.7464 29.877 18.6915Z" fill="#1062FE" stroke="#1062FE" stroke-width="0.39914"/>
</svg>
