<svg width="81" height="81" viewBox="0 0 81 81" fill="none" xmlns="http://www.w3.org/2000/svg">
<circle cx="40.4282" cy="40.4283" r="40.4283" fill="#D3E3FF"/>
<path fill-rule="evenodd" clip-rule="evenodd" d="M28.6511 23.6079C29.7724 22.7408 31.0577 22.4277 32.3468 22.4277H49.5096C50.8006 22.4277 52.0859 22.7408 53.2053 23.6079C54.3114 24.4637 55.1066 25.752 55.6405 27.4408L55.6558 27.4844L60.4938 47.028C61.0926 48.2101 61.4282 49.5535 61.4282 50.9747C61.4282 55.5665 57.8755 59.4277 53.3236 59.4277H28.5329C23.9809 59.4277 20.4282 55.5646 20.4282 50.9728C20.4282 49.5535 20.7639 48.2101 21.3626 47.0299L26.2006 27.4863L26.2159 27.4408C26.7499 25.752 27.547 24.4637 28.6511 23.6079ZM25.2452 43.2426C26.2745 42.7643 27.3969 42.5169 28.5329 42.5178H53.3236C54.4983 42.5178 55.61 42.7777 56.6112 43.2426L52.9002 28.2529C52.4807 26.9569 51.9544 26.2473 51.4471 25.8526C50.9456 25.4636 50.3258 25.2739 49.5096 25.2739H32.3468C31.5306 25.2739 30.9109 25.4636 30.4093 25.8526C29.9021 26.2473 29.3739 26.9569 28.9562 28.2548L25.2452 43.2426ZM28.5329 45.3639C26.6125 45.3639 24.8925 46.4758 23.9752 48.2006C23.5218 49.0548 23.286 50.0067 23.2887 50.9728C23.2887 54.1491 25.7125 56.5816 28.5329 56.5816H53.3236C56.144 56.5816 58.5678 54.1491 58.5678 50.9728C58.5704 50.0067 58.3347 49.0548 57.8812 48.2006C56.964 46.4758 55.2439 45.3639 53.3236 45.3639H28.5329ZM38.0678 48.9918C38.4471 48.9918 38.8109 49.1418 39.0791 49.4086C39.3473 49.6755 39.498 50.0375 39.498 50.4149V52.3123C39.498 52.6898 39.3473 53.0517 39.0791 53.3186C38.8109 53.5855 38.4471 53.7354 38.0678 53.7354C37.6884 53.7354 37.3247 53.5855 37.0564 53.3186C36.7882 53.0517 36.6375 52.6898 36.6375 52.3123V50.4149C36.6375 50.0375 36.7882 49.6755 37.0564 49.4086C37.3247 49.1418 37.6884 48.9918 38.0678 48.9918ZM42.8352 48.9918C43.2145 48.9918 43.5783 49.1418 43.8465 49.4086C44.1147 49.6755 44.2654 50.0375 44.2654 50.4149V52.3123C44.2654 52.6898 44.1147 53.0517 43.8465 53.3186C43.5783 53.5855 43.2145 53.7354 42.8352 53.7354C42.4559 53.7354 42.0921 53.5855 41.8239 53.3186C41.5557 53.0517 41.405 52.6898 41.405 52.3123V50.4149C41.405 50.0375 41.5557 49.6755 41.8239 49.4086C42.0921 49.1418 42.4559 48.9918 42.8352 48.9918ZM47.6026 48.9918C47.982 48.9918 48.3457 49.1418 48.614 49.4086C48.8822 49.6755 49.0329 50.0375 49.0329 50.4149V52.3123C49.0329 52.6898 48.8822 53.0517 48.614 53.3186C48.3457 53.5855 47.982 53.7354 47.6026 53.7354C47.2233 53.7354 46.8595 53.5855 46.5913 53.3186C46.3231 53.0517 46.1724 52.6898 46.1724 52.3123V50.4149C46.1724 50.0375 46.3231 49.6755 46.5913 49.4086C46.8595 49.1418 47.2233 48.9918 47.6026 48.9918ZM52.3701 48.9918C52.7494 48.9918 53.1132 49.1418 53.3814 49.4086C53.6496 49.6755 53.8003 50.0375 53.8003 50.4149V52.3123C53.8003 52.6898 53.6496 53.0517 53.3814 53.3186C53.1132 53.5855 52.7494 53.7354 52.3701 53.7354C51.9908 53.7354 51.627 53.5855 51.3588 53.3186C51.0905 53.0517 50.9398 52.6898 50.9398 52.3123V50.4149C50.9398 50.0375 51.0905 49.6755 51.3588 49.4086C51.627 49.1418 51.9908 48.9918 52.3701 48.9918Z" fill="#1062FE"/>
</svg>
