<svg width="38" height="38" viewBox="0 0 38 38" fill="none" xmlns="http://www.w3.org/2000/svg">
<circle cx="18.5457" cy="18.5457" r="18.5457" fill="white" fill-opacity="0.1"/>
<path d="M18.5449 22.1317C17.853 22.1317 17.1766 21.9266 16.6013 21.5421C16.026 21.1577 15.5776 20.6114 15.3128 19.9721C15.048 19.3328 14.9787 18.6294 15.1137 17.9508C15.2487 17.2722 15.5819 16.6488 16.0712 16.1595C16.5604 15.6703 17.1838 15.3371 17.8624 15.2021C18.541 15.0671 19.2445 15.1364 19.8837 15.4012C20.523 15.666 21.0694 16.1144 21.4538 16.6897C21.8382 17.265 22.0434 17.9414 22.0434 18.6333C22.0422 19.5608 21.6732 20.45 21.0174 21.1058C20.3616 21.7616 19.4724 22.1306 18.5449 22.1317ZM18.5449 16.8841C18.199 16.8841 17.8608 16.9867 17.5731 17.1789C17.2855 17.3711 17.0612 17.6443 16.9289 17.9639C16.7965 18.2835 16.7618 18.6352 16.8293 18.9746C16.8968 19.3139 17.0634 19.6256 17.308 19.8702C17.5527 20.1148 17.8644 20.2814 18.2037 20.3489C18.543 20.4164 18.8947 20.3818 19.2143 20.2494C19.5339 20.117 19.8071 19.8928 19.9993 19.6051C20.1916 19.3175 20.2941 18.9793 20.2941 18.6333C20.2937 18.1695 20.1092 17.7249 19.7813 17.3969C19.4534 17.069 19.0087 16.8845 18.5449 16.8841ZM8.92422 22.1317C8.23229 22.1317 7.55591 21.9266 6.98059 21.5421C6.40528 21.1577 5.95687 20.6114 5.69209 19.9721C5.4273 19.3328 5.35802 18.6294 5.493 17.9508C5.62799 17.2722 5.96119 16.6488 6.45045 16.1595C6.93972 15.6703 7.56308 15.3371 8.24171 15.2021C8.92034 15.0671 9.62376 15.1364 10.263 15.4012C10.9023 15.666 11.4487 16.1144 11.8331 16.6897C12.2175 17.265 12.4227 17.9414 12.4227 18.6333C12.4215 19.5608 12.0525 20.45 11.3967 21.1058C10.7409 21.7616 9.85171 22.1306 8.92422 22.1317ZM8.92422 16.8841C8.57826 16.8841 8.24006 16.9867 7.95241 17.1789C7.66475 17.3711 7.44055 17.6443 7.30815 17.9639C7.17576 18.2835 7.14112 18.6352 7.20861 18.9746C7.27611 19.3139 7.4427 19.6256 7.68734 19.8702C7.93197 20.1148 8.24365 20.2814 8.58296 20.3489C8.92228 20.4164 9.27399 20.3818 9.59362 20.2494C9.91325 20.117 10.1864 19.8928 10.3786 19.6051C10.5708 19.3175 10.6734 18.9793 10.6734 18.6333C10.673 18.1695 10.4885 17.7249 10.1606 17.3969C9.83265 17.069 9.388 16.8845 8.92422 16.8841ZM13.2973 31.7524C12.6053 31.7524 11.929 31.5473 11.3536 31.1628C10.7783 30.7784 10.3299 30.2321 10.0651 29.5928C9.80034 28.9535 9.73106 28.2501 9.86605 27.5715C10.001 26.8929 10.3342 26.2695 10.8235 25.7802C11.3128 25.291 11.9361 24.9578 12.6148 24.8228C13.2934 24.6878 13.9968 24.7571 14.6361 25.0219C15.2753 25.2867 15.8217 25.7351 16.2061 26.3104C16.5905 26.8857 16.7957 27.5621 16.7957 28.254C16.7945 29.1815 16.4256 30.0707 15.7698 30.7265C15.1139 31.3823 14.2248 31.7513 13.2973 31.7524ZM13.2973 26.5048C12.9513 26.5048 12.6131 26.6074 12.3255 26.7996C12.0378 26.9918 11.8136 27.265 11.6812 27.5846C11.5488 27.9042 11.5142 28.2559 11.5817 28.5953C11.6492 28.9346 11.8157 29.2463 12.0604 29.4909C12.305 29.7355 12.6167 29.9021 12.956 29.9696C13.2953 30.0371 13.647 30.0025 13.9667 29.8701C14.2863 29.7377 14.5595 29.5135 14.7517 29.2258C14.9439 28.9382 15.0465 28.6 15.0465 28.254C15.046 27.7902 14.8616 27.3456 14.5336 27.0176C14.2057 26.6897 13.761 26.5052 13.2973 26.5048ZM23.7926 31.7524C23.1007 31.7524 22.4243 31.5473 21.849 31.1628C21.2736 30.7784 20.8252 30.2321 20.5604 29.5928C20.2957 28.9535 20.2264 28.2501 20.3614 27.5715C20.4964 26.8929 20.8295 26.2695 21.3188 25.7802C21.8081 25.291 22.4314 24.9578 23.1101 24.8228C23.7887 24.6878 24.4921 24.7571 25.1314 25.0219C25.7706 25.2867 26.317 25.7351 26.7014 26.3104C27.0858 26.8857 27.291 27.5621 27.291 28.254C27.2899 29.1815 26.9209 30.0707 26.2651 30.7265C25.6092 31.3823 24.7201 31.7513 23.7926 31.7524ZM23.7926 26.5048C23.4466 26.5048 23.1084 26.6074 22.8208 26.7996C22.5331 26.9918 22.3089 27.265 22.1765 27.5846C22.0441 27.9042 22.0095 28.2559 22.077 28.5953C22.1445 28.9346 22.3111 29.2463 22.5557 29.4909C22.8003 29.7355 23.112 29.9021 23.4513 29.9696C23.7906 30.0371 24.1423 30.0025 24.462 29.8701C24.7816 29.7377 25.0548 29.5135 25.247 29.2258C25.4392 28.9382 25.5418 28.6 25.5418 28.254C25.5413 27.7902 25.3569 27.3456 25.029 27.0176C24.701 26.6897 24.2564 26.5052 23.7926 26.5048ZM28.1656 22.1317C27.4737 22.1317 26.7973 21.9266 26.222 21.5421C25.6467 21.1577 25.1983 20.6114 24.9335 19.9721C24.6687 19.3328 24.5994 18.6294 24.7344 17.9508C24.8694 17.2722 25.2026 16.6488 25.6919 16.1595C26.1811 15.6703 26.8045 15.3371 27.4831 15.2021C28.1617 15.0671 28.8652 15.1364 29.5044 15.4012C30.1437 15.666 30.6901 16.1144 31.0745 16.6897C31.4589 17.265 31.6641 17.9414 31.6641 18.6333C31.6629 19.5608 31.2939 20.45 30.6381 21.1058C29.9823 21.7616 29.0931 22.1306 28.1656 22.1317ZM28.1656 16.8841C27.8197 16.8841 27.4815 16.9867 27.1938 17.1789C26.9062 17.3711 26.682 17.6443 26.5496 17.9639C26.4172 18.2835 26.3825 18.6352 26.45 18.9746C26.5175 19.3139 26.6841 19.6256 26.9287 19.8702C27.1734 20.1148 27.4851 20.2814 27.8244 20.3489C28.1637 20.4164 28.5154 20.3818 28.835 20.2494C29.1546 20.117 29.4278 19.8928 29.62 19.6051C29.8123 19.3175 29.9148 18.9793 29.9148 18.6333C29.9144 18.1695 29.7299 17.7249 29.402 17.3969C29.0741 17.069 28.6294 16.8845 28.1656 16.8841ZM23.7926 12.511C23.1007 12.511 22.4243 12.3059 21.849 11.9214C21.2736 11.537 20.8252 10.9906 20.5604 10.3514C20.2957 9.71214 20.2264 9.00872 20.3614 8.33009C20.4964 7.65146 20.8295 7.0281 21.3188 6.53883C21.8081 6.04957 22.4314 5.71637 23.1101 5.58138C23.7887 5.4464 24.4921 5.51568 25.1314 5.78046C25.7706 6.04525 26.317 6.49366 26.7014 7.06897C27.0858 7.64429 27.291 8.32067 27.291 9.0126C27.2899 9.94009 26.9209 10.8293 26.2651 11.4851C25.6092 12.1409 24.7201 12.5099 23.7926 12.511ZM23.7926 7.26338C23.4466 7.26338 23.1084 7.36597 22.8208 7.55818C22.5331 7.75038 22.3089 8.02357 22.1765 8.3432C22.0441 8.66283 22.0095 9.01454 22.077 9.35385C22.1445 9.69317 22.3111 10.0049 22.5557 10.2495C22.8003 10.4941 23.112 10.6607 23.4513 10.7282C23.7906 10.7957 24.1423 10.7611 24.462 10.6287C24.7816 10.4963 25.0548 10.2721 25.247 9.98441C25.4392 9.69676 25.5418 9.35856 25.5418 9.0126C25.5413 8.54882 25.3569 8.10417 25.029 7.77623C24.701 7.44828 24.2564 7.26384 23.7926 7.26338ZM13.2973 12.511C12.6053 12.511 11.929 12.3059 11.3536 11.9214C10.7783 11.537 10.3299 10.9906 10.0651 10.3514C9.80034 9.71214 9.73106 9.00872 9.86605 8.33009C10.001 7.65146 10.3342 7.0281 10.8235 6.53883C11.3128 6.04957 11.9361 5.71637 12.6148 5.58138C13.2934 5.4464 13.9968 5.51568 14.6361 5.78046C15.2753 6.04525 15.8217 6.49366 16.2061 7.06897C16.5905 7.64429 16.7957 8.32067 16.7957 9.0126C16.7945 9.94009 16.4256 10.8293 15.7698 11.4851C15.1139 12.1409 14.2248 12.5099 13.2973 12.511ZM13.2973 7.26338C12.9513 7.26338 12.6131 7.36597 12.3255 7.55818C12.0378 7.75038 11.8136 8.02357 11.6812 8.3432C11.5488 8.66283 11.5142 9.01454 11.5817 9.35385C11.6492 9.69317 11.8157 10.0049 12.0604 10.2495C12.305 10.4941 12.6167 10.6607 12.956 10.7282C13.2953 10.7957 13.647 10.7611 13.9667 10.6287C14.2863 10.4963 14.5595 10.2721 14.7517 9.98441C14.9439 9.69676 15.0465 9.35856 15.0465 9.0126C15.046 8.54882 14.8616 8.10417 14.5336 7.77623C14.2057 7.44828 13.761 7.26384 13.2973 7.26338Z" fill="white"/>
</svg>
